PathFileType	4	(X/Y/Z)	RBDS015\RBDS015runT35.trc
DataRate	CameraRate	NumFrames	NumMarkers	Units	OrigDataRate	OrigDataStartFrame	OrigNumFrames
150.000000	150.000000	4	33	mm	150.000000	0	4500
Frame#	Time	L.ASIS			L.Heel.Bottom			L.Heel.Lateral			L.Heel.Top			L.Iliac.Crest			L.MT1			L.MT5			L.PSIS			L.Shank.Bottom.Lateral			L.Shank.Bottom.Medial			L.Shank.Top.Lateral			L.Shank.Top.Medial			L.Thigh.Bottom.Lateral			L.Thigh.Bottom.Medial			L.Thigh.Top.Lateral			L.Thigh.Top.Medial			R.ASIS			R.ASY			R.Heel.Bottom			R.Heel.Lateral			R.Heel.Top			R.Iliac.Crest			R.MT1			R.MT5			R.PSIS			R.Shank.Bottom.Lateral			R.Shank.Bottom.Medial			R.Shank.Top.Lateral			R.Shank.Top.Medial			R.Thigh.Bottom.Lateral			R.Thigh.Bottom.Medial			R.Thigh.Top.Lateral			R.Thigh.Top.Medial			
		X1	Y1	Z1	X2	Y2	Z2	X3	Y3	Z3	X4	Y4	Z4	X5	Y5	Z5	X6	Y6	Z6	X7	Y7	Z7	X8	Y8	Z8	X9	Y9	Z9	X10	Y10	Z10	X11	Y11	Z11	X12	Y12	Z12	X13	Y13	Z13	X14	Y14	Z14	X15	Y15	Z15	X16	Y16	Z16	X17	Y17	Z17	X18	Y18	Z18	X19	Y19	Z19	X20	Y20	Z20	X21	Y21	Z21	X22	Y22	Z22	X23	Y23	Z23	X24	Y24	Z24	X25	Y25	Z25	X26	Y26	Z26	X27	Y27	Z27	X28	Y28	Z28	X29	Y29	Z29	X30	Y30	Z30	X31	Y31	Z31	X32	Y32	Z32	X33	Y33	Z33	

1	0	2146.592451392555	1036.177996332258	923.0013397347105	1545.063041550566	168.3153891574214	1002.88357454683	1572.891854224313	165.4246288509134	960.274462013981	1577.040768412472	195.2196648983112	1002.301872442503	2093.607117392869	1122.067528083953	884.1718373789503	1712.392800860727	48.89538078621025	1038.30633380831	1678.326539393367	56.85774720081364	927.0816572954961	1976.465883767697	1099.512984676936	994.6653909609062	1698.695849884998	260.0043658534388	936.9799525745387	1661.742945244668	284.5731218781817	962.0991220397816	1739.462066585738	328.5505103042577	922.6813976636648	1702.614179626582	357.0664137611412	948.300657023752	1962.813059000938	673.5242817923356	893.4802909727235	1903.312661580651	691.2796238144648	922.1197849554919	1986.56793686222	780.2415063704716	875.7104515781746	1924.942511168755	798.3111336261775	909.3023430049464	2155.444373565099	1044.216359759986	1147.307415353114	2197.239884717179	123.6131735651552	1093.288843489452	2008.086328261747	135.4133412211734	1064.145357376473	2034.780188225185	139.851197233323	1109.715434751571	2031.929913902371	175.3301080835947	1071.869222204653	2070.135013481445	1136.535292157356	1190.007467323456	2213.425257147579	78.001618792668	1043.222394293435	2160.602532022669	69.43558843221295	1148.977378278974	1974.619012094359	1103.065325079007	1086.948983141669	2129.852137954076	256.0723972391962	1139.385245616641	2086.438284644792	276.572287304565	1110.949953178441	2152.394261793801	332.4943515821153	1156.969965668586	2110.562827998323	351.2875301268135	1127.805599794183	2206.20780528212	719.270029243913	1210.795436465898	2157.760447924716	685.530853378817	1166.899342218995	2140.399632279458	805.4739808039807	1214.936580547755	2092.126673967418	773.5202282141382	1176.495879139898	
2	0.006666666666666667	2149.287966585042	1039.645243725049	923.9402919713636	1536.128356733184	183.2377671266073	1000.141460991751	1564.244689567505	178.1674661263857	957.9067804327188	1569.717505166294	207.6706528484632	999.8290362221484	2098.468885936697	1128.34568843185	884.4758797451361	1693.840936257751	53.17967560043093	1036.71026350868	1661.204643273549	62.85598701713054	925.6682869980025	1979.167864100711	1103.935700274368	993.3601207033041	1689.24411105141	267.7812945566065	935.1303473873916	1652.254257229762	292.241491548812	960.4478644407635	1730.087944780111	336.4672056461463	921.343268984622	1693.353512958781	364.8278787173246	947.3400255834309	1957.351983346753	679.5391852700485	893.487894704015	1898.414660976831	698.7056826481302	922.2434498404099	1983.591889573816	785.5278982875262	875.7186758148429	1922.61087150327	805.1012090008655	909.4398446405727	2156.845186664803	1048.233988324473	1147.344575407169	2226.184025815237	122.1029454400907	1093.6875854982	2038.014900493657	122.1148156595398	1062.941925668293	2063.814098817639	128.2093626045802	1108.864740677818	2059.076159032736	163.2725671757166	1070.86069782366	2071.762992573073	1141.51187454673	1190.016708790959	2245.769364444338	77.91208988021704	1043.783254784915	2192.846255266144	65.96455086127501	1149.12066966394	1976.758575991243	1107.612401836	1085.938984687925	2149.906095502922	250.1740636372618	1138.822981284014	2106.123757548727	267.6538319394478	1109.497352710556	2167.143928730792	327.5404712790614	1156.081364782459	2124.984456573171	343.5340631244603	1126.061230634901	2203.021555800859	720.4707962442656	1208.070628207577	2154.122520108595	687.7328272798987	1164.041468649829	2138.106773474658	807.364006815791	1213.026658916554	2089.599885187391	776.4452959353843	1174.112609225052	
3	0.01333333333333333	2151.93642608475	1042.994132149573	924.8581969228105	1527.218925823343	198.168461979461	997.620845818328	1555.511051062024	191.0035989333806	955.6985837329408	1562.362154287202	220.1494568500116	997.5252034704541	2103.280320649801	1134.431580037972	884.8230536877146	1675.420198492829	57.73903815507264	1035.031363796176	1644.067543277822	69.18132565316856	924.2308902997087	1981.828706983298	1108.263292676126	992.0782563857551	1679.827295236471	275.6295640530608	933.3256306761458	1642.850262129326	300.0352005790035	958.8398237248741	1720.849494652314	344.3752958847751	920.0211303619215	1684.278178751398	372.6393042105298	946.3851645201125	1952.18002225761	685.3457023073825	893.451001699122	1893.789382051322	705.8662961503936	922.3240285847215	1980.817432000154	790.630189470916	875.6965332521515	1920.450424822893	811.6469391272204	909.5316593259097	2158.19805911598	1052.066391117896	1147.351493584058	2254.792410800215	120.9310482392345	1094.098310245759	2067.744874042023	109.2847176499566	1061.800593158124	2092.656584362553	116.9865732336062	1108.056140570279	2086.036098862355	151.6216468342738	1069.917470958353	2073.421279387249	1146.321917835583	1190.038677874697	2277.684185002074	78.21314655402259	1044.344675853254	2224.758777141595	62.88511216954326	1149.277799645247	1978.849964660498	1112.040908967907	1084.964162603273	2169.76240834013	244.5138947294988	1138.286106893886	2125.662703414205	258.9933936182976	1108.079605595559	2181.739373245113	322.7336917345264	1155.206569122405	2139.293656870192	335.942704963201	1124.357633188974	2199.836009887591	721.5109657392381	1205.467044052373	2150.519247936586	689.7841799889084	1161.273668592871	2135.81824501873	809.1020476847133	1211.215739723058	2087.105136836305	779.216089700173	1171.815583849818	
4	0.02	2154.496190480269	1046.123724003694	925.7439733205269	1518.326746658988	213.1318309055417	995.5137533342134	1546.585647767054	204.0325898166222	953.7891323108146	1554.915986639954	232.7017016866576	995.5360170541069	2108.000984176749	1140.158842178964	885.2529603497163	1657.226913243946	62.83914022173639	1033.201240843481	1626.881394733284	76.14301851581301	922.7508638986033	1984.407125949366	1112.425868610511	990.8467736571954	1670.452364796934	283.6320942870688	931.608732392649	1633.584207697339	308.0863983011631	957.317723770315	1711.848254605558	352.2838765781451	918.7331724088117	1675.535644754297	380.5637079377035	945.4474198702783	1947.560245014772	690.760346921488	893.3285114068364	1889.681472288001	712.5252966878254	922.3190519045025	1978.426276645765	795.3885214346536	875.6170162782732	1918.614843495507	817.7329547171495	909.538435758521	2159.46107696485	1055.557918020019	1147.307463262361	2282.786883557158	120.424632326419	1094.56329106498	2097.148168930433	97.33122409523494	1060.782148855834	2121.179407576273	106.5415789528232	1107.340157136213	2112.677841467333	140.7292104798359	1069.116854151402	2075.137618643377	1150.828603811037	1190.092878960328	2308.817917399216	79.30342579252155	1044.931928088095	2256.083193046989	60.55207554026691	1149.47265614466	1980.853228902343	1116.255048056437	1084.061276322616	2189.25565675128	239.3195302962548	1137.812931508855	2144.938939792081	250.8302021236529	1106.739246456269	2196.043763202817	318.2176809893429	1154.368405898045	2153.395985675294	328.6639329223641	1122.735552716245	2196.647870232391	722.256554682964	1203.083741010993	2146.976302916748	691.5592899630414	1158.668158906938	2133.535998233088	810.5627441638682	1209.582655587598	2084.66679006379	781.7058319653698	1169.673310910496	
